# xmcd CD database file
#
# Track frame offsets:
#	150
#	18275
#	42462
#	61127
#	76380
#
# Disc length: 1196 seconds
#
# Revision: 2
# Processed by: cddbd v1.4PL0 Copyright (c) Steve Scherf et al.
# Submitted via: CDex 1.40Beta9
#
DISCID=3404aa05
DTITLE=no sé feat ménélik - Quelle Aventure remixes
DYEAR=1995
DGENRE=Acid Jazz
TTITLE0=Disco Adventure (club mix)
TTITLE1=Quelle aventure (d' original mix)
TTITLE2=Takin' no shorts (mix)
TTITLE3=Disco adventure (instrumental)
TTITLE4=Takin' no shorts (instrumental)
EXTD=YEAR: 1995 ID3G: 74
EXTT0=
EXTT1=
EXTT2=
EXTT3=
EXTT4=
PLAYORDER=
